# xmcd
#
# Track frame offsets: 
#        182
#        53132
#        73465
#        93807
#        126132
#        152822
#        168000
#        183465
#        201300
#        222140
#        250615
#        269947
#
# Disc length: 3935 seconds
#
# Revision: 15
# Processed by: cddbd v1.5.2PL0 Copyright (c) Steve Scherf et al.
# Submitted via: ExactAudioCopyFreeDBPlugin 1.0
#
DISCID=b10f5d0c
DTITLE=Various Artist - Smooth Grooves  A Sensual Collection [Rhino]
DYEAR=1995
DGENRE=SMB
TTITLE0=The Floaters - Float On
TTITLE1=Norman Connors - You Are My Starship
TTITLE2=The Isley Brothers - Voyage to Atlantis
TTITLE3=Lenny Williams - Cause I Love You
TTITLE4=New Birth - It's Been a Long Time
TTITLE5=The Delfonics - Hey Love
TTITLE6=Blue Magic - Stop to Start
TTITLE7=The Stylistics - Break Up to Make Up
TTITLE8=Tower of Power - Willing to Learn
TTITLE9=Aretha Franklin - Something He Can Feel
TTITLE10=Ray, Goodman and Brown - Special Lady
TTITLE11=René and Angela - You Don't Have to Cry
EXTD=8122-71861-2\n\nR2 71861 ID3G:  14
EXTT0=The Floaters
EXTT1=Norman Connors
EXTT2=The Isley Brothers
EXTT3=Lenny Williams
EXTT4=The New Birth
EXTT5=The Delfonics
EXTT6=Blue Magic
EXTT7=The Stylistics
EXTT8=Tower Of Power
EXTT9=Aretha Franklin
EXTT10=Ray, Goodman and Brown
EXTT11=Rene and Angela
PLAYORDER=
